<?xml version="1.0" encoding="utf-8"?>
<!-- Generator: Adobe Illustrator 27.5.0, SVG Export Plug-In . SVG Version: 6.00 Build 0)  -->
<svg version="1.1" xmlns="http://www.w3.org/2000/svg" xmlns:xlink="http://www.w3.org/1999/xlink" x="0px" y="0px"
	 viewBox="0 0 500 500" style="enable-background:new 0 0 500 500;" xml:space="preserve">
<g id="Background_Simple">
	<g>
		<path style="fill:#92E3A9;" d="M47.286,116.758c1.681-2.761,3.43-5.471,5.256-8.119c24.324-35.248,64.817-59.38,104.171-70.308
			c17.24-4.795,34.941-7.304,52.612-7.945c115.9-4.153,158.478,90.092,195.82,114.392c37.342,24.3,94.645,65.806,87.454,152.996
			c-5.456,66.293-43.695,129.681-113.534,158.526c-7.692,3.187-15.775,5.953-24.238,8.248c-15.742,4.271-32.804,6.953-51.187,7.759
			c-52.801,2.32-95.674-10.233-137.611-41.842c-9.748-7.348-19.444-15.635-32.095-16.543c-9.195-0.66-17.913,2.598-8.302,11.362
			c11.296,10.301-1.738,30.561-30.414,16.486c-47.894-23.509-67.596-74.231-76.878-125.807
			C6.948,252.656,12.47,173.927,47.286,116.758z"/>
		<path style="opacity:0.7;fill:#FFFFFF;" d="M47.286,116.758c1.681-2.761,3.43-5.471,5.256-8.119
			c24.324-35.248,64.817-59.38,104.171-70.308c17.24-4.795,34.941-7.304,52.612-7.945c115.9-4.153,158.478,90.092,195.82,114.392
			c37.342,24.3,94.645,65.806,87.454,152.996c-5.456,66.293-43.695,129.681-113.534,158.526c-7.692,3.187-15.775,5.953-24.238,8.248
			c-15.742,4.271-32.804,6.953-51.187,7.759c-52.801,2.32-95.674-10.233-137.611-41.842c-9.748-7.348-19.444-15.635-32.095-16.543
			c-9.195-0.66-17.913,2.598-8.302,11.362c11.296,10.301-1.738,30.561-30.414,16.486c-47.894-23.509-67.596-74.231-76.878-125.807
			C6.948,252.656,12.47,173.927,47.286,116.758z"/>
	</g>
</g>
<g id="Clouds">
	<path style="fill:none;stroke:#263238;stroke-linecap:round;stroke-linejoin:round;stroke-miterlimit:10;" d="M363.521,73.979
		h34.823c0,0-0.638-13.059-5.739-15.929c-5.102-2.87-10.522,1.594-14.03,0.319c-3.508-1.275-3.841-5.621-3.841-5.621
		s-4.825-16.406-17.371-18.336c-12.546-1.93-13.51,6.755-17.371,13.51c-3.86,6.755-10.615-2.895-17.371-2.895
		c-6.755,0-5.79,11.581-11.58,13.511c-5.79,1.93-10.615-2.895-17.371,0c-6.755,2.895-8.685,9.65-12.546,9.65
		c-3.86,0-11.58-0.965-14.476,0.965c-2.895,1.93-7.72,4.825-7.72,4.825h94.724"/>
	<path style="fill:none;stroke:#263238;stroke-linecap:round;stroke-linejoin:round;stroke-miterlimit:10;" d="M136.891,108.278
		h19.913c0,0-0.365-7.468-3.282-9.109c-2.917-1.641-6.017,0.912-8.023,0.182c-2.006-0.729-2.196-3.214-2.196-3.214
		s-2.759-9.382-9.933-10.485c-7.174-1.104-7.726,3.863-9.933,7.726c-2.207,3.863-6.07-1.656-9.933-1.656s-3.311,6.622-6.622,7.726
		c-3.311,1.104-6.07-1.656-9.933,0c-3.863,1.656-4.967,5.519-7.174,5.519c-2.207,0-6.622-0.552-8.278,0.552
		c-1.655,1.104-4.415,2.759-4.415,2.759h54.167"/>
	<path style="fill:none;stroke:#263238;stroke-linecap:round;stroke-linejoin:round;stroke-miterlimit:10;" d="M451.629,151.553
		h19.913c0,0-0.365-7.468-3.282-9.109c-2.918-1.641-6.017,0.912-8.023,0.182c-2.006-0.729-2.196-3.214-2.196-3.214
		s-2.759-9.381-9.933-10.485c-7.174-1.104-7.726,3.863-9.933,7.726c-2.207,3.863-6.07-1.656-9.933-1.656
		c-3.863,0-3.311,6.622-6.622,7.726c-3.311,1.104-6.07-1.656-9.933,0c-3.863,1.656-4.967,5.519-7.174,5.519
		c-2.207,0-6.622-0.552-8.278,0.552c-1.656,1.104-4.415,2.759-4.415,2.759h54.167"/>
</g>
<g id="Mountain">
	<g>
		<polyline style="fill:none;stroke:#263238;stroke-linecap:round;stroke-linejoin:round;stroke-miterlimit:10;" points="
			491.557,326.555 475.569,319.816 456.383,251.753 445.191,239.622 441.461,221.427 428.137,203.232 404.155,194.471 
			379.64,156.733 350.861,152.689 343.933,143.255 332.741,142.581 316.753,158.755 310.891,158.755 305.561,147.972 
			298.633,144.603 286.375,106.19 277.315,100.125 270.855,94.3 254.399,92.713 248.004,106.864 238.944,110.234 226.153,140.559 
			210.698,146.624 208.033,158.081 201.105,162.124 169.661,253.1 163.266,269.274 137.685,279.382 119.565,276.013 86.544,268.6 
			64.305,272.643 19.828,286.121 12.415,287.469 		"/>
		<polygon style="fill:#263238;stroke:#263238;stroke-linecap:round;stroke-linejoin:round;stroke-miterlimit:10;" points="
			343.933,143.255 336.803,152.656 337.277,157.875 337.751,186.816 344.394,162.145 351.51,159.773 350.861,152.689 		"/>
		<polygon style="fill:#263238;stroke:#263238;stroke-linecap:round;stroke-linejoin:round;stroke-miterlimit:10;" points="
			379.64,156.733 375.707,165.941 364.32,167.839 363.371,174.481 365.744,217.181 372.86,196.305 372.86,183.495 378.079,182.546 
			382.349,193.458 381.875,218.604 390.415,220.027 395.159,231.888 403.699,229.516 404.173,203.896 413.662,198.677 
			404.155,194.471 		"/>
		<polygon style="fill:#263238;stroke:#263238;stroke-linecap:round;stroke-linejoin:round;stroke-miterlimit:10;" points="
			428.137,203.232 420.304,231.888 413.188,235.209 414.137,271.741 421.728,286.924 420.304,327.726 437.384,289.77 
			445.924,291.194 451.618,325.353 465.851,331.521 475.569,319.816 456.383,251.753 445.191,239.622 441.461,221.427 		"/>
		<polygon style="fill:#263238;stroke:#263238;stroke-linecap:round;stroke-linejoin:round;stroke-miterlimit:10;" points="
			305.561,147.972 297.898,163.569 293.154,164.992 299.322,184.444 310.234,180.649 310.891,158.755 		"/>
		<polygon style="fill:#263238;stroke:#263238;stroke-linecap:round;stroke-linejoin:round;stroke-miterlimit:10;" points="
			270.855,94.3 264.687,101.891 277.315,100.125 		"/>
		<polygon style="fill:#263238;stroke:#263238;stroke-linecap:round;stroke-linejoin:round;stroke-miterlimit:10;" points="
			286.375,106.19 274.651,119.92 266.111,120.394 261.366,116.599 265.636,137 276.548,150.759 278.446,163.094 298.633,144.603 		
			"/>
		<polygon style="fill:#263238;stroke:#263238;stroke-linecap:round;stroke-linejoin:round;stroke-miterlimit:10;" points="
			327.314,193.458 332.058,199.626 323.518,206.743 306.913,204.845 315.453,226.669 323.518,228.093 338.7,213.385 
			337.277,198.677 		"/>
		<polygon style="fill:#263238;stroke:#263238;stroke-linecap:round;stroke-linejoin:round;stroke-miterlimit:10;" points="
			214.871,163.094 221.513,168.788 221.513,211.962 231.476,171.634 		"/>
		<polygon style="fill:#263238;stroke:#263238;stroke-linecap:round;stroke-linejoin:round;stroke-miterlimit:10;" points="
			247.133,153.131 230.053,148.861 233.849,156.452 231.476,161.671 236.221,167.364 231.476,171.634 236.221,194.407 
			245.71,191.086 257.096,166.415 254.724,150.284 		"/>
		<polygon style="fill:#263238;stroke:#263238;stroke-linecap:round;stroke-linejoin:round;stroke-miterlimit:10;" points="
			359.209,257.555 339.103,272.227 314.106,278.204 315.193,293.42 323.344,301.027 323.888,306.461 309.216,306.461 
			320.627,319.503 351.601,333.631 395.617,346.13 396.16,314.069 392.356,298.31 390.726,267.336 371.707,261.359 367.903,247.774 
			358.122,249.404 		"/>
		<polygon style="fill:#263238;stroke:#263238;stroke-linecap:round;stroke-linejoin:round;stroke-miterlimit:10;" points="
			404.855,255.925 396.16,260.272 399.964,276.574 		"/>
	</g>
	<g>
		<path style="fill:none;stroke:#263238;stroke-linecap:round;stroke-linejoin:round;stroke-miterlimit:10;" d="M334.474,428.314
			l-1.784-16.646l-17.978-44.612l-7.324-21.973c0,0-19.31-9.988-25.302-7.324c-5.993,2.663-27.3,17.312-27.3,17.312l-23.095,73.244
			H334.474z"/>
		<path style="fill:none;stroke:#263238;stroke-linecap:round;stroke-linejoin:round;stroke-miterlimit:10;" d="M268.64,428.314
			l-23.843-32.627c0,0-11.985-2.663-13.983-2.663c-1.998,0-13.317,7.99-13.317,7.99l-16.132,27.3H268.64z"/>
		<polygon style="fill:#263238;stroke:#263238;stroke-linecap:round;stroke-linejoin:round;stroke-miterlimit:10;" points="
			307.388,345.082 297.184,373.215 290.318,383.514 276.967,384.277 297.947,416.702 278.874,420.898 249.882,402.969 
			268.64,428.314 334.474,428.314 332.69,411.668 310.536,355.286 		"/>
		<polygon style="fill:#263238;stroke:#263238;stroke-linecap:round;stroke-linejoin:round;stroke-miterlimit:10;" points="
			244.798,395.687 234.624,396.866 225.85,406.021 225.469,418.228 215.55,427.765 268.64,428.314 		"/>
	</g>
</g>
<g id="Cactus">
	<g>
		<path style="fill:#92E3A9;stroke:#263238;stroke-linecap:round;stroke-linejoin:round;stroke-miterlimit:10;" d="M420.108,428.314
			v-37.091c0-9.177,0.399-73.417,0-80.999c-0.399-7.581,0.399-28.729,1.197-35.113c0.798-6.384,0-25.935-0.399-33.517
			c-0.399-7.581-3.192-10.374-5.985-9.576c-2.793,0.798-3.591,9.177-4.788,17.955c-1.197,8.778-4.389,37.906-4.389,41.098
			c0,3.192-1.596,28.729-1.596,44.29c0,14.632-3.175,84.642-3.554,92.952H420.108z"/>
		<g>
			<g>
				<path style="fill:none;stroke:#263238;stroke-linecap:round;stroke-linejoin:round;stroke-miterlimit:10;" d="M405.173,398.055
					c-0.256,7.226-0.515,14.451-0.775,21.677"/>
				<path style="fill:none;stroke:#263238;stroke-linecap:round;stroke-linejoin:round;stroke-miterlimit:10;" d="M408.1,319.878
					c-0.786,21.29-2.461,63.669-2.461,64.5c0,0.302-0.133,4.194-0.321,9.545"/>
				<path style="fill:none;stroke:#263238;stroke-linecap:round;stroke-linejoin:round;stroke-miterlimit:10;" d="M415.444,234.984
					c0,0-1.806,4.644-2.322,11.095c-0.516,6.451-4.386,53.669-4.644,62.957c-0.027,0.98-0.08,2.579-0.153,4.657"/>
				<path style="fill:none;stroke:#263238;stroke-linecap:round;stroke-linejoin:round;stroke-miterlimit:10;" d="M410.438,376.368
					c-1.952,14.588,0.204,28.606-1.418,43.416"/>
				
					<line style="fill:none;stroke:#263238;stroke-linecap:round;stroke-linejoin:round;stroke-miterlimit:10;" x1="412.729" y1="306.202" x2="410.657" y2="369.658"/>
				
					<line style="fill:none;stroke:#263238;stroke-linecap:round;stroke-linejoin:round;stroke-miterlimit:10;" x1="416.218" y1="238.854" x2="412.864" y2="302.069"/>
				<path style="fill:none;stroke:#263238;stroke-linecap:round;stroke-linejoin:round;stroke-miterlimit:10;" d="M417.555,272.372
					c0.477-14.304,0.986-30.248,0.986-33.261"/>
				<path style="fill:none;stroke:#263238;stroke-linecap:round;stroke-linejoin:round;stroke-miterlimit:10;" d="M415.325,417.14
					l1.409-120.747c0,0,0.31-8.844,0.672-19.613"/>
			</g>
		</g>
		<path style="fill:#263238;stroke:#263238;stroke-linecap:round;stroke-linejoin:round;stroke-miterlimit:10;" d="M403.311,341.712
			c0,0,2.247,9.681,4.772,7.75c2.525-1.931,2.356-14.611,0.87-16.245c-1.485-1.634-3.266-4.132-3.266-4.132L403.311,341.712z"/>
		<path style="fill:#263238;stroke:#263238;stroke-linecap:round;stroke-linejoin:round;stroke-miterlimit:10;" d="M414.006,320.915
			c0,0,0.148,5.199,1.783,8.764c1.634,3.565,4.159,5.051,4.159,5.051l0.594-10.101L414.006,320.915z"/>
		<g>
			<path style="fill:#92E3A9;stroke:#263238;stroke-linecap:round;stroke-linejoin:round;stroke-miterlimit:10;" d="
				M391.592,266.243c0,0-0.704,19.707-1.056,36.951c-0.352,17.244-2.463,24.634,2.463,31.32c4.927,6.686,9.501,7.39,11.261,7.038
				c1.76-0.352,4.223-3.519,3.871-8.446c-0.352-4.927-6.686-5.983-8.094-10.557c-1.408-4.575-2.111-23.226-2.111-36.951
				c0-13.724,2.111-19.003,0-23.226C395.815,258.15,393.703,257.797,391.592,266.243z"/>
			<path style="fill:none;stroke:#263238;stroke-linecap:round;stroke-linejoin:round;stroke-miterlimit:10;" d="M398.12,335.52
				c1.71,1.503,3.488,2.543,4.939,2.93"/>
			<path style="fill:none;stroke:#263238;stroke-linecap:round;stroke-linejoin:round;stroke-miterlimit:10;" d="M393.953,272.166
				c-0.059,0.716-0.12,1.48-0.183,2.295c-0.774,10.063-2.838,43.864-1.806,50.572c0.537,3.49,2.471,6.701,4.748,9.124"/>
			<path style="fill:none;stroke:#263238;stroke-linecap:round;stroke-linejoin:round;stroke-miterlimit:10;" d="M395.06,262.076
				c0,0-0.284,1.279-0.747,6.05"/>
			<path style="fill:none;stroke:#263238;stroke-linecap:round;stroke-linejoin:round;stroke-miterlimit:10;" d="M395.799,309.518
				c-0.133,5.475-0.223,9.924-0.223,11.903c0,7.483,9.805,12.385,10.837,12.901"/>
			<path style="fill:none;stroke:#263238;stroke-linecap:round;stroke-linejoin:round;stroke-miterlimit:10;" d="M396.867,271.107
				c0,0-0.589,19.565-0.971,34.559"/>
		</g>
		<g>
			<path style="fill:#92E3A9;stroke:#263238;stroke-linecap:round;stroke-linejoin:round;stroke-miterlimit:10;" d="M418.78,325.189
				c0,0,4.132,1.583,8.003,0.175c3.871-1.408,4.927-4.223,4.927-14.78c0-10.557-1.408-35.191-1.76-45.748
				c-0.352-10.557-3.167-14.78-4.927-9.15c-1.759,5.63-1.408,23.93-0.704,34.135c0.704,10.205,0.847,22.642-1.265,26.161
				c-2.112,3.519-4.275-3.453-7.727-0.329C412.352,318.345,413.853,323.429,418.78,325.189z"/>
			<path style="fill:none;stroke:#263238;stroke-linecap:round;stroke-linejoin:round;stroke-miterlimit:10;" d="M428.894,279.704
				c-0.583-8.858-1.322-22.015-1.322-22.015"/>
			<path style="fill:none;stroke:#263238;stroke-linecap:round;stroke-linejoin:round;stroke-miterlimit:10;" d="M420.598,322.368
				c1.89,0.537,4.006,0.634,5.942-0.431c4.753-2.614,3.596-25.802,2.98-33.884"/>
			<path style="fill:none;stroke:#263238;stroke-linecap:round;stroke-linejoin:round;stroke-miterlimit:10;" d="M414.928,319.357
				c0,0,1.417,1.191,3.455,2.163"/>
			<path style="fill:none;stroke:#263238;stroke-linecap:round;stroke-linejoin:round;stroke-miterlimit:10;" d="M425.249,277.299
				c0,0,0.774,23.222,0.774,33.027c0,9.805-3.354,9.805-7.225,8.257"/>
		</g>
	</g>
	<g>
		<path style="fill:#92E3A9;stroke:#263238;stroke-linecap:round;stroke-linejoin:round;stroke-miterlimit:10;" d="M346.554,351.377
			c0.408,11.672-0.55,65.004-0.772,76.937h19.423c-0.274-7.831-0.836-23.903-1.038-29.684c-0.272-7.763-1.773-62.104-2.396-68.517
			c-0.623-6.413-0.451-24.302,0.158-29.702c0.609-5.4-0.767-21.939-1.391-28.352c-0.623-6.413-3.499-8.775-6.268-8.1
			c-2.77,0.675-3.32,7.763-4.257,15.189c-0.937,7.426-3.268,32.064-3.173,34.765C346.934,316.612,346.093,338.214,346.554,351.377z"
			/>
		<g>
			<g>
				<path style="fill:none;stroke:#263238;stroke-linecap:round;stroke-linejoin:round;stroke-miterlimit:10;" d="M349.433,404.41
					c-0.036,5.182-0.074,10.365-0.112,15.547"/>
				<path style="fill:none;stroke:#263238;stroke-linecap:round;stroke-linejoin:round;stroke-miterlimit:10;" d="M350.048,338.28
					c-0.156,18.009-0.577,53.857-0.553,54.561c0.009,0.256-0.009,3.547-0.038,8.074"/>
				<path style="fill:none;stroke:#263238;stroke-linecap:round;stroke-linejoin:round;stroke-miterlimit:10;" d="M354.881,266.467
					c0,0-1.669,3.929-1.994,9.385c-0.325,5.457-2.799,45.398-2.782,53.256c0.002,0.829-0.004,2.181-0.016,3.94"/>
				<path style="fill:none;stroke:#263238;stroke-linecap:round;stroke-linejoin:round;stroke-miterlimit:10;" d="M354.057,386.064
					c-0.041,11.29-0.082,22.581-0.123,33.871"/>
				
					<line style="fill:none;stroke:#263238;stroke-linecap:round;stroke-linejoin:round;stroke-miterlimit:10;" x1="354.272" y1="326.711" x2="354.078" y2="380.388"/>
				
					<line style="fill:none;stroke:#263238;stroke-linecap:round;stroke-linejoin:round;stroke-miterlimit:10;" x1="355.769" y1="269.741" x2="354.285" y2="323.215"/>
				<path style="fill:none;stroke:#263238;stroke-linecap:round;stroke-linejoin:round;stroke-miterlimit:10;" d="M358.097,298.095
					c0.054-12.1,0.091-25.587,0.002-28.135"/>
				<path style="fill:none;stroke:#263238;stroke-linecap:round;stroke-linejoin:round;stroke-miterlimit:10;" d="M360.15,420.553
					l-2.163-102.14c0,0,0.048-7.482,0.092-16.591"/>
			</g>
		</g>
	</g>
</g>
<g id="Floor">
	<g>
		
			<line style="fill:none;stroke:#263238;stroke-linecap:round;stroke-linejoin:round;stroke-miterlimit:10;" x1="12.415" y1="428.314" x2="470.666" y2="428.314"/>
		
			<ellipse style="fill:none;stroke:#263238;stroke-linecap:round;stroke-linejoin:round;stroke-miterlimit:10;" cx="307.611" cy="450.549" rx="12.852" ry="3.534"/>
		<path style="fill:none;stroke:#263238;stroke-linecap:round;stroke-linejoin:round;stroke-miterlimit:10;" d="M368.017,442.195
			c0,1.597-2.302,2.892-5.141,2.892s-5.141-1.295-5.141-2.892c0-1.597,2.302-2.892,5.141-2.892S368.017,440.598,368.017,442.195z"/>
		<path style="fill:none;stroke:#263238;stroke-linecap:round;stroke-linejoin:round;stroke-miterlimit:10;" d="M353.879,455.69
			c0,0.887-1.87,1.607-4.177,1.607c-2.307,0-4.177-0.719-4.177-1.607s1.87-1.607,4.177-1.607
			C352.009,454.084,353.879,454.803,353.879,455.69z"/>
		
			<ellipse style="fill:none;stroke:#263238;stroke-linecap:round;stroke-linejoin:round;stroke-miterlimit:10;" cx="264.235" cy="472.719" rx="15.101" ry="5.784"/>
		<path style="fill:none;stroke:#263238;stroke-linecap:round;stroke-linejoin:round;stroke-miterlimit:10;" d="M193.869,468.221
			c0,0.71-2.733,1.285-6.105,1.285c-3.372,0-6.105-0.576-6.105-1.285c0-0.71,2.733-1.285,6.105-1.285
			C191.135,466.936,193.869,467.511,193.869,468.221z"/>
		<path style="fill:none;stroke:#263238;stroke-linecap:round;stroke-linejoin:round;stroke-miterlimit:10;" d="M227.285,469.828
			c0,1.597-2.877,2.892-6.426,2.892c-3.549,0-6.426-1.295-6.426-2.892c0-1.597,2.877-2.892,6.426-2.892
			C224.408,466.936,227.285,468.23,227.285,469.828z"/>
		<path style="fill:none;stroke:#263238;stroke-linecap:round;stroke-linejoin:round;stroke-miterlimit:10;" d="M159.81,470.792
			c0,1.065-3.309,1.928-7.39,1.928c-4.081,0-7.39-0.863-7.39-1.928s3.309-1.928,7.39-1.928
			C156.502,468.864,159.81,469.727,159.81,470.792z"/>
		<path style="fill:none;stroke:#263238;stroke-linecap:round;stroke-linejoin:round;stroke-miterlimit:10;" d="M429.707,441.874
			c0,1.065-3.165,1.928-7.069,1.928c-3.904,0-7.069-0.863-7.069-1.928c0-1.065,3.165-1.928,7.069-1.928
			C426.543,439.946,429.707,440.809,429.707,441.874z"/>
		<path style="fill:none;stroke:#263238;stroke-linecap:round;stroke-linejoin:round;stroke-miterlimit:10;" d="M469.549,448.3
			c0,1.065-2.302,1.928-5.141,1.928c-2.839,0-5.141-0.863-5.141-1.928c0-1.065,2.302-1.928,5.141-1.928
			C467.248,446.372,469.549,447.235,469.549,448.3z"/>
		<path style="fill:none;stroke:#263238;stroke-linecap:round;stroke-linejoin:round;stroke-miterlimit:10;" d="M401.432,453.762
			c0,0.887-2.589,1.607-5.784,1.607c-3.194,0-5.784-0.719-5.784-1.607c0-0.887,2.589-1.607,5.784-1.607
			C398.843,452.156,401.432,452.875,401.432,453.762z"/>
		<path style="fill:none;stroke:#263238;stroke-linecap:round;stroke-linejoin:round;stroke-miterlimit:10;" d="M338.456,437.697
			c0,1.242-2.014,2.249-4.498,2.249c-2.484,0-4.498-1.007-4.498-2.249c0-1.242,2.014-2.249,4.498-2.249
			C336.443,435.448,338.456,436.455,338.456,437.697z"/>
	</g>
</g>
<g id="Character">
	<g>
		
			<ellipse style="fill:#263238;stroke:#263238;stroke-linecap:round;stroke-linejoin:round;stroke-miterlimit:10;" cx="154.166" cy="446.555" rx="117.459" ry="14.597"/>
		<g>
			<path style="fill:#FFFFFF;stroke:#263238;stroke-linecap:round;stroke-linejoin:round;stroke-miterlimit:10;" d="M62.345,261.96
				c0,0-11.927,6.461-20.873,18.885c-8.945,12.424-14.909,24.849-10.436,39.261c4.473,14.412,3.976,34.291,2.485,43.237
				c-1.491,8.946-6.461,16.897-4.97,25.843c1.491,8.945,2.982,13.915,2.982,13.915l2.485-13.418l3.479,7.455
				c0,0,0.994-11.43,3.976-15.406c2.982-3.976,11.43-12.921,11.43-14.909c0-1.988,0.994-4.473,0.994-4.473l-0.994,12.921
				c0,0,11.43-17.891,13.418-29.322s-0.497-28.327-0.497-32.8c0-4.473-2.982-30.812-0.994-38.267S66.817,256.493,62.345,261.96z"/>
			<path style="fill:#BABABA;stroke:#263238;stroke-linecap:round;stroke-linejoin:round;stroke-miterlimit:10;" d="
				M238.631,190.456c0,0,5.848-3.342,7.24-5.291c1.392-1.949,2.506-3.62,2.506-3.62s-0.279,7.519-2.228,10.025
				c-1.949,2.506-3.898,3.62-3.898,3.62l-5.569-3.342L238.631,190.456z"/>
			<path style="fill:#263238;stroke:#263238;stroke-linecap:round;stroke-linejoin:round;stroke-miterlimit:10;" d="M94.102,335.048
				c0,0-4.122,11.85-9.017,18.291c-4.895,6.44-11.593,13.396-12.623,14.942c-1.03,1.546-3.607,24.989-4.379,32.717
				c-0.773,7.729-0.258,11.85,0.773,14.169c1.03,2.319,1.546,6.183,1.546,6.183s0.258,4.122,1.288,5.667
				c1.03,1.546,3.607,4.895,3.864,7.213c0.258,2.318,0.773,5.152,0.773,5.152s-1.03,1.803-6.956,1.288s-12.022-3.935-10.906-5.445
				c1.116-1.51,2.147-7.693,2.147-7.693s-0.773-5.152-0.515-7.471c0.258-2.318,1.03-4.895,1.03-5.925
				c0-1.03,2.319-22.67,0.258-34.521c-2.061-11.85,0.258-17.518,1.546-19.836c1.288-2.319,6.698-14.169,5.925-20.352
				c-0.773-6.183-2.319-13.654-2.319-13.654l13.654,0.773L94.102,335.048z"/>
			<path style="fill:#E0E0E0;stroke:#263238;stroke-linecap:round;stroke-linejoin:round;stroke-miterlimit:10;" d="M71.689,427.017
				c-1.031-1.546-1.288-5.667-1.288-5.667s-0.515-3.864-1.546-6.183c-1.031-2.319-1.546-6.44-0.773-14.169
				c0.166-1.662,0.416-4.054,0.716-6.796c-2.296,1.411-4.925,3.997-6.736,5.932c-0.313,7.383-0.936,13.467-0.936,14.002
				c0,1.031-0.773,3.607-1.03,5.925c-0.258,2.319,0.515,7.471,0.515,7.471s-1.031,6.183-2.147,7.693
				c-1.116,1.51,4.981,4.93,10.906,5.445c5.925,0.515,6.956-1.288,6.956-1.288s-0.515-2.834-0.773-5.152
				S72.72,428.562,71.689,427.017z"/>
			<path style="fill:#263238;stroke:#263238;stroke-linecap:round;stroke-linejoin:round;stroke-miterlimit:10;" d="
				M204.104,330.668c0,0-7.986,23.701-12.881,36.324s-7.986,34.778-8.244,43.28s0.773,15.457,1.288,17.26
				c0.515,1.803,1.803,5.41,3.091,6.183c1.288,0.773,3.091,2.318,3.349,3.091c0.258,0.773,9.789,9.016,6.44,11.85
				s-11.593,0-16.487-0.515c-4.895-0.515-4.895-8.501-4.895-9.532c0-1.03-0.258-7.728-2.319-13.911
				c-2.061-6.183-0.515-10.305-0.258-14.427c0.258-4.122,3.607-26.277,3.607-39.415c0-13.138,0.773-24.989,0.773-24.989
				L204.104,330.668z"/>
			<path style="fill:#E0E0E0;stroke:#263238;stroke-linecap:round;stroke-linejoin:round;stroke-miterlimit:10;" d="
				M175.766,438.609c0,1.03,0,9.017,4.895,9.532c4.895,0.515,13.138,3.349,16.487,0.515c3.349-2.834-6.183-11.077-6.44-11.85
				c-0.258-0.773-2.061-2.318-3.349-3.091c-1.288-0.773-2.576-4.38-3.091-6.183c-0.292-1.024-0.751-3.712-1.045-7.397
				c-1.527-0.888-3.51-2.071-5.083-3.12c-2.052-1.368-4.574,3.146-5.209,5.846c0.141,0.594,0.306,1.202,0.518,1.837
				c0.467-0.158,0.472,0.103,0.192,0.61C175.52,431.315,175.766,437.613,175.766,438.609z"/>
			<path style="fill:none;stroke:#263238;stroke-width:2;stroke-linecap:round;stroke-linejoin:round;stroke-miterlimit:10;" d="
				M219.117,270.108c0,0,19.29,14.661,31.379,10.545c12.089-4.115,11.06-20.833,11.06-20.833"/>
			<g>
				<path style="fill:#BABABA;stroke:#263238;stroke-linecap:round;stroke-linejoin:round;stroke-miterlimit:10;" d="
					M257.009,210.227c0,0,8.354,15.872,13.366,20.049c5.012,4.177,11.695,12.252,11.695,15.594c0,3.342-1.671,8.076-4.455,10.303
					c-2.785,2.228-5.848,2.228-5.848,2.228s-0.279,1.671-4.177,3.063c-3.898,1.392-6.126,1.392-8.911-2.506
					c-2.785-3.898-1.114-5.291-4.734-6.683c-3.62-1.392-18.936-5.569-21.72-5.291c-2.785,0.279-2.785,0.279-2.785,0.279
					s-4.177,8.632-5.848,20.328c-1.671,11.695-7.24,22.556-7.24,22.556s2.785,17.822-3.342,30.909
					c-6.126,13.088-12.252,21.442-20.049,24.505c-7.797,3.063-20.606,8.354-20.606,8.354s-7.797,31.466-7.797,38.15
					s-1.671,10.86-3.063,14.759c-1.392,3.898-4.177,16.429-3.341,20.606c0.835,4.177,0,8.075-0.279,10.303s-0.279,2.228-0.279,2.228
					s5.848,4.734,6.405,6.683c0.557,1.949,5.291,10.025,2.785,11.417s-10.86,1.392-15.037-0.835
					c-4.177-2.228-5.291-9.189-5.291-10.582c0-1.392,0.835-3.62,1.392-5.569c0.557-1.949-0.278-6.405-0.278-9.189
					c0-2.785,0-4.455,1.114-7.24c1.114-2.785,2.228-14.48,1.949-21.163c-0.278-6.683-0.835-17.543-0.835-17.543l1.671-31.466
					l-0.835-11.695c0,0-37.593,1.949-52.351-1.949c-14.759-3.898-29.239-11.695-29.239-11.695s-7.519,23.948-9.746,29.517
					c-2.228,5.569-2.785,7.518-2.785,7.518s-2.228,16.429-3.62,21.163c-1.392,4.734-1.671,15.037-1.114,18.935
					c0.557,3.898,2.785,11.417,2.506,13.645c-0.278,2.228-0.835,2.228-0.557,4.177c0.279,1.949,3.62,10.582,4.734,11.139
					c1.114,0.557,1.949,5.848,1.949,7.24c0,1.392-6.405,2.506-9.746,1.114c-3.342-1.392-7.24-3.898-7.24-5.291
					c0-1.392,1.949-7.24,2.228-11.138c0.278-3.898-3.063-11.138-2.506-15.594c0.557-4.455,0.835-3.063,1.392-8.075
					c0.557-5.012-2.785-31.188-2.506-35.643c0.278-4.455,3.62-10.582,4.456-14.202c0.835-3.62,1.392-18.936-0.557-28.125
					c-1.949-9.189-4.455-31.745,0-42.883c4.455-11.138,16.429-23.948,29.239-26.732c12.809-2.785,25.619-1.671,32.302-0.278
					c6.683,1.392,27.011,1.114,33.973-0.278c6.961-1.392,14.065-2.554,14.065-2.554s3.478,3.946,18.793-15.546
					s21.442-29.239,32.58-36.757c11.139-7.518,20.606-10.303,20.606-10.303s12.252,4.177,15.594,8.076
					C246.428,202.151,257.009,210.227,257.009,210.227z"/>
				<g>
					<path style="fill:#7A7A7A;stroke:#263238;stroke-linecap:round;stroke-linejoin:round;stroke-miterlimit:10;" d="
						M222.66,210.362l-2.588-1.941c5.972-7.962,13.518-12.484,13.836-12.673l1.65,2.783
						C235.485,198.573,228.231,202.933,222.66,210.362z"/>
				</g>
				<g>
					<path style="fill:#7A7A7A;stroke:#263238;stroke-linecap:round;stroke-linejoin:round;stroke-miterlimit:10;" d="
						M253.473,245.353c-9.944-5.208-19.746-14.992-29.137-29.078c-6.955-10.432-10.96-19.214-11.127-19.582l2.946-1.335
						c0.159,0.351,16.2,35.282,38.819,47.13L253.473,245.353z"/>
				</g>
				<path style="fill:#263238;stroke:#263238;stroke-linecap:round;stroke-linejoin:round;stroke-miterlimit:10;" d="
					M69.047,329.131c0,0-5-9.696-6.403-13.906s-0.935-16.84,0.468-19.646c0,0-2.893,17.03,7.093,23.999
					c9.986,6.969,17.729,1.074,17.729,1.074s14.963-9.581,24.176-5.372c9.213,4.209,14.182,29.007,14.182,29.007
					S89.378,342.982,69.047,329.131z"/>
				<path style="fill:#263238;stroke:#263238;stroke-linecap:round;stroke-linejoin:round;stroke-miterlimit:10;" d="
					M215.412,228.165c0,0-4.45,8.677-4.45,14.587c0,5.91-6.447,1.612-6.447,1.612l-3.223,24.176l-8.596-2.686
					c0,0,0.537,20.952,2.686,25.788c2.149,4.835,8.059,17.729,8.059,22.564s-4.298,16.117-4.298,16.117l-6.984,9.67
					c0,0,7.558-1.083,13.837-6.189c2.398-3.558,4.707-7.816,7.016-12.749c6.126-13.088,3.342-30.909,3.342-30.909
					s5.569-10.86,7.24-22.555c1.671-11.695,5.848-20.328,5.848-20.328S216.321,240.165,215.412,228.165z"/>
				<g>
					<path style="fill:none;stroke:#263238;stroke-linecap:round;stroke-linejoin:round;stroke-miterlimit:10;" d="M182.357,344.468
						c1.945-1.398,4.144-2.749,6.284-3.572c6.017-2.314,12.496-12.496,11.108-21.29c-1.388-8.794-1.388-8.794-1.388-8.794"/>
					<path style="fill:none;stroke:#263238;stroke-linecap:round;stroke-linejoin:round;stroke-miterlimit:10;" d="M176.145,349.69
						c0,0,1.517-1.517,3.766-3.346"/>
					<path style="fill:none;stroke:#263238;stroke-linecap:round;stroke-linejoin:round;stroke-miterlimit:10;" d="M171.123,343.23
						c0.479,0.906,0.793,1.971,0.856,3.219"/>
					<path style="fill:none;stroke:#263238;stroke-linecap:round;stroke-linejoin:round;stroke-miterlimit:10;" d="M162.26,338.119
						c0,0,3.644,0.338,6.472,2.41"/>
				</g>
			</g>
			<g>
				<path style="fill:#7A7A7A;stroke:#263238;stroke-linecap:round;stroke-linejoin:round;stroke-miterlimit:10;" d="
					M136.578,303.608c0,0,2.169,16.871,5.543,24.102c3.374,7.231,8.515,15.065,8.515,15.065l-11.648,0.842
					c0,0-4.775-7.262-9.497-20.02c-4.723-12.758-2.553-21.676-2.553-21.676L136.578,303.608z"/>
				<path style="fill:#7A7A7A;stroke:#263238;stroke-linecap:round;stroke-linejoin:round;stroke-miterlimit:10;" d="
					M133.204,305.295c0,0,38.322-6.99,47.24-6.749c8.918,0.241,22.174,3.374,25.789,2.892c3.615-0.482,10.605-4.097,10.605-4.097
					l0.482,6.749c0,0-6.749,3.133-13.979,2.892c-7.231-0.241-20.487-4.338-29.163-3.856c-8.677,0.482-20.487,3.133-29.645,4.338
					c-9.159,1.205-17.594,0.723-21.451-0.964s-3.615-3.615-3.615-3.615l12.051,2.169L133.204,305.295z"/>
				<path style="fill:#7A7A7A;stroke:#263238;stroke-linecap:round;stroke-linejoin:round;stroke-miterlimit:10;" d="
					M88.374,258.538c0,0-9.882,13.979-12.533,22.656s-2.892,9.882-1.205,10.605s34.225,9.882,38.322,10.364
					c4.097,0.482,21.21,4.097,24.584,3.133c3.374-0.964,4.82-8.677,4.82-10.123c0-1.446,6.508-13.256,9.641-26.271
					c3.133-13.015,5.967-16.263,5.967-16.263l-66.704,0.838L88.374,258.538z"/>
				<g>
					<path style="fill:#7A7A7A;stroke:#263238;stroke-linecap:round;stroke-linejoin:round;stroke-miterlimit:10;" d="
						M97.774,277.096c0,0-0.964,36.635,0,41.214c0.964,4.579,13.497,28.44,14.22,29.163c0.723,0.723,6.025-0.482,6.025-0.482
						s-14.22-26.271-15.184-29.404c-0.964-3.133-1.928-41.455-1.928-41.455S99.702,273.24,97.774,277.096z"/>
					<path style="fill:none;stroke:#263238;stroke-linecap:round;stroke-linejoin:round;stroke-miterlimit:10;" d="M97.774,318.31
						c0,0,3.856-4.82,5.061-0.723"/>
				</g>
				<path style="fill:#7A7A7A;stroke:#263238;stroke-linecap:round;stroke-linejoin:round;stroke-miterlimit:10;" d="
					M89.097,256.851c0,0-11.328,10.605-11.328,13.738c0,3.133,4.82,4.579,7.954,5.784c3.133,1.205,46.034,14.702,50.132,12.533
					c4.097-2.169,6.266-13.979,6.266-13.979l13.391-22.143l-61.057-0.68L89.097,256.851z"/>
			</g>
			<path style="fill:#FFFFFF;stroke:#263238;stroke-linecap:round;stroke-linejoin:round;stroke-miterlimit:10;" d="M60.414,442.465
				c0-1.392-0.835-6.683-1.949-7.24c-1.114-0.557-4.455-9.189-4.734-11.139c-0.278-1.949,0.279-1.949,0.557-4.177
				c0.279-2.228-1.949-9.746-2.506-13.645c-0.376-2.633-0.369-8.184,0.102-12.971c-2.113-0.099-5.759,2.637-7.476,4.037
				c0.185,2.798,0.26,5.017,0.134,6.149c-0.557,5.012-0.835,3.62-1.392,8.075c-0.557,4.456,2.785,11.696,2.506,15.594
				c-0.278,3.898-2.228,9.746-2.228,11.138c0,1.392,3.899,3.899,7.24,5.291C54.01,444.971,60.414,443.857,60.414,442.465z"/>
			<path style="fill:#FFFFFF;stroke:#263238;stroke-linecap:round;stroke-linejoin:round;stroke-miterlimit:10;" d="
				M146.459,446.642c0,1.392,1.114,8.354,5.291,10.582c4.177,2.228,12.531,2.228,15.037,0.835s-2.228-9.468-2.785-11.417
				c-0.557-1.949-6.405-6.683-6.405-6.683s0,0,0.278-2.228c0.279-2.228,1.114-6.126,0.279-10.303c0,0-3.373-6.934-4.864-8.922
				c-1.491-1.988-4.604,6.137-4.604,6.137c-1.114,2.785-1.114,4.456-1.114,7.24c0,2.785,0.835,7.24,0.278,9.189
				C147.295,443.022,146.459,445.25,146.459,446.642z"/>
			<g>
				<path style="fill:#FFFFFF;stroke:#263238;stroke-linecap:round;stroke-linejoin:round;stroke-miterlimit:10;" d="
					M102.353,241.426c0,0-9.159,2.41-14.943,0.964c-5.785-1.446-12.051-1.928-13.979,3.133c-1.928,5.061-2.651,10.846,4.579,13.979
					c7.23,3.133,15.907,0,15.907,0l18.317-3.374C112.235,256.128,111.03,240.462,102.353,241.426z"/>
				<path style="fill:none;stroke:#263238;stroke-linecap:round;stroke-linejoin:round;stroke-miterlimit:10;" d="M76.805,250.343
					c0,0-1.446-2.169,0.964-1.687c2.41,0.482,3.856,4.338,1.687,5.785c-2.169,1.446-5.302-0.241-5.785-2.41
					c-0.482-2.169,2.892-8.918,6.267-6.025c3.374,2.892,3.615,8.195,1.687,10.846c-1.928,2.651-3.615,2.651-3.615,2.651"/>
				<path style="fill:none;stroke:#263238;stroke-linecap:round;stroke-linejoin:round;stroke-miterlimit:10;" d="M75.841,243.354
					c0,0,6.507-2.892,8.677,1.687c2.169,4.579,2.169,9.641,0.723,12.051"/>
			</g>
			<g>
				<path style="fill:#92E3A9;stroke:#263238;stroke-linecap:round;stroke-linejoin:round;stroke-miterlimit:10;" d="
					M137.809,233.375c0,0,10.451,10.451,13.651,14.077c3.199,3.626,4.052,5.332,4.052,5.332s-16.637,4.692-20.689,4.692
					c-4.053,0-7.942,0.133-7.942,0.133s-14.667,1.787-17.653,1.36c-2.986-0.427-8.532-1.066-9.598-3.839
					c-1.066-2.773,1.706-22.609,6.612-23.675C111.148,230.389,137.809,233.375,137.809,233.375z"/>
				
					<line style="fill:#FFFFFF;stroke:#263238;stroke-linecap:round;stroke-linejoin:round;stroke-miterlimit:10;" x1="126.881" y1="257.609" x2="137.332" y2="250.571"/>
			</g>
			<path style="fill:#7A7A7A;stroke:#263238;stroke-linecap:round;stroke-linejoin:round;stroke-miterlimit:10;" d="
				M136.054,225.593l2.371,9.484c0,0-27.589,0.215-28.882,1.293s-6.035,9.915-6.035,14.441c0,4.526,4.095,19.614,0.862,22.416
				c-3.233,2.802-5.388,0.216-7.328-5.82c-1.94-6.035-2.802-12.932-2.587-15.303c0.216-2.371,2.371-12.932,2.371-12.932
				l3.768-11.194L136.054,225.593z"/>
			<path style="fill:none;stroke:#263238;stroke-linecap:round;stroke-linejoin:round;stroke-miterlimit:10;" d="M132.883,231.601
				c0,1.938-2.714,3.51-6.062,3.51c-3.348,0-6.062-1.571-6.062-3.51c0-1.938,2.714-3.51,6.062-3.51
				C130.169,228.092,132.883,229.663,132.883,231.601z"/>
			<path style="fill:#263238;stroke:#263238;stroke-linecap:round;stroke-linejoin:round;stroke-miterlimit:10;" d="
				M110.934,342.793c0,0,2.986,11.304,4.906,12.584c1.92,1.28,9.811-0.853,9.811-0.853s-3.626-3.626-4.266-7.039
				s-0.427-8.958-0.427-8.958L110.934,342.793z"/>
			<path style="fill:#92E3A9;stroke:#263238;stroke-linecap:round;stroke-linejoin:round;stroke-miterlimit:10;" d="
				M126.931,251.504c0,0,0.427,20.263,0.853,25.168c0.427,4.906-4.052,18.77-4.052,24.315c0,5.546-0.427,13.224-0.213,15.997
				c0.213,2.773-0.64,10.665-0.64,10.665l1.493,1.066c0,0,0.213,1.706-0.213,2.56c-0.427,0.853-0.427,2.133,0.213,3.199
				c0.64,1.066,0.853,2.56,0.64,3.199c-0.213,0.64-1.706,0.64-5.545,2.773c-3.839,2.133-8.958,4.692-8.958,4.692
				s-1.493-2.773-1.066-5.332c0.427-2.56-2.346-2.986-1.92-5.759c0.427-2.773,2.346-4.479,1.92-6.185
				c-0.427-1.706-1.067-1.28-1.493-3.626c-0.427-2.346-2.346-15.57-2.773-21.116c-0.427-5.546,2.986-27.088,2.986-27.088
				s-2.416-9.157-4.123-16.409c-1.706-7.252,1.194-15.638,1.194-15.638s4.801,0,10.607,4.745"/>
			<g>
				<path style="fill:#7A7A7A;stroke:#263238;stroke-linecap:round;stroke-linejoin:round;stroke-miterlimit:10;" d="
					M124.158,321.038c0,0-5.546,1.28-5.972,3.839c-0.427,2.559,0.64,10.025,0,13.011c-0.64,2.986-1.28,9.171,0.427,12.371
					c1.706,3.199,5.759,4.266,7.039,4.266c1.28,0,9.811-2.346,10.878-3.626c1.066-1.28-0.427-4.053-0.427-4.053
					s-2.559-12.371-3.413-16.21c-0.853-3.839-2.346-5.972-3.199-7.039c-0.853-1.066-1.92-2.559-1.92-2.559l2.865-32.299l-2.99-0.641
					L124.158,321.038z"/>
				<path style="fill:#263238;stroke:#263238;stroke-linecap:round;stroke-linejoin:round;stroke-miterlimit:10;" d="
					M126.078,340.02c0,0,2.986-0.427,5.119-2.346c2.133-1.92,4.906-1.493,5.972,0.64c1.066,2.133,0.213,4.692-1.28,6.612
					c-1.493,1.92-3.413,3.839-3.413,3.839s-5.119-2.133-6.185-4.479S126.078,340.02,126.078,340.02z"/>
				<polyline style="fill:#263238;stroke:#263238;stroke-linecap:round;stroke-linejoin:round;stroke-miterlimit:10;" points="
					126.078,340.02 126.291,324.877 129.277,326.583 130.984,334.475 				"/>
			</g>
			<path style="fill:#FFFFFF;stroke:#263238;stroke-linecap:round;stroke-linejoin:round;stroke-miterlimit:10;" d="M242.43,214.612
				c0,0-4.428-3.962-6.525-3.962c-2.097,0-3.03,2.564-3.03,2.564S240.099,210.883,242.43,214.612z"/>
			<path style="fill:#263238;stroke:#263238;stroke-linecap:round;stroke-linejoin:round;stroke-miterlimit:10;" d="
				M232.875,213.214c0,0,0,3.03,3.03,3.962c3.03,0.932,6.525-2.564,6.525-2.564S236.836,210.184,232.875,213.214z"/>
			<path style="fill:#FFFFFF;stroke:#263238;stroke-linecap:round;stroke-linejoin:round;stroke-miterlimit:10;" d="
				M220.235,191.937c0,0,1.303,3.908-1.042,11.202s-4.689,13.026-4.689,13.026l-0.521-7.816c0,0-2.345,0.26-4.168,10.16
				c-1.824,9.9-0.521,17.716,0,20.06c0.521,2.345,2.084,14.589,2.084,15.892s-4.168-6.253-4.168-6.253s-0.782,6.513-0.782,17.455
				c0,10.942-3.908,21.102-3.908,21.102l-7.034-13.808c0,0,2.866,7.034-1.303,13.026c-4.168,5.992-9.118,9.9-9.118,9.9
				s-0.781-7.295-0.781-13.808c0-6.513,0.781-11.203,0.781-11.203s-2.866,7.295-3.126,12.505c-0.261,5.21,0.261,10.16,0.261,10.16
				s-6.513-4.689-8.076-7.034c-1.563-2.345-5.992-10.681-5.992-10.681l-0.521,8.597c0,0-3.387,2.084-7.295-9.9
				c-3.908-11.984-4.95-14.068-4.429-16.934c0.521-2.866,1.563-4.95,1.563-4.95s13.653-7.095,16.336-15.401
				c2.683-8.306,10.759-20.03,20.138-28.888C203.822,199.492,217.89,192.458,220.235,191.937z"/>
			<path style="fill:#7A7A7A;stroke:#263238;stroke-linecap:round;stroke-linejoin:round;stroke-miterlimit:10;" d="
				M166.828,246.907c0,0-8.597-3.387-16.934-2.345s-22.144,17.716-21.623,23.187c0.521,5.471,9.639,6.774,15.892,2.084
				c6.253-4.689,12.505-16.413,13.808-17.195C159.273,251.857,166.828,246.907,166.828,246.907z"/>
			<path style="fill:#7A7A7A;stroke:#263238;stroke-linecap:round;stroke-linejoin:round;stroke-miterlimit:10;" d="
				M149.894,244.563c0,0,3.737-7.786,8.164-7.47c4.427,0.316,8.77,9.815,8.77,9.815L149.894,244.563z"/>
			<g>
				<path style="fill:#FFFFFF;stroke:#263238;stroke-linecap:round;stroke-linejoin:round;stroke-miterlimit:10;" d="
					M105.322,144.04c0,0,1.232-8.065,3.248-9.521c2.016-1.456,7.617-1.68,9.073-1.456c1.456,0.224,7.281,8.401,7.617,10.417
					c0.336,2.016-8.177,2.688-11.985,2.912C109.466,146.616,105.322,144.04,105.322,144.04z"/>
				<path style="fill:#FFFFFF;stroke:#263238;stroke-linecap:round;stroke-linejoin:round;stroke-miterlimit:10;" d="
					M104.51,170.033c0,0-14.095,4.437-14.878,6.264c-0.783,1.827,7.308,32.888,7.308,32.888s2.349,17.749,3.654,18.793
					c1.305,1.044,26.363,0.783,30.539,0.261c4.176-0.522,7.57-4.698,7.57-4.698s0.522-17.749,0.783-20.098
					c0.261-2.349-1.044-19.054-1.044-22.708c0-3.654,0.783-5.742-1.305-7.57c-2.088-1.827-16.582-4.483-16.582-4.483
					S107.12,167.945,104.51,170.033z"/>
				<polygon style="fill:#263238;stroke:#263238;stroke-linecap:round;stroke-linejoin:round;stroke-miterlimit:10;" points="
					126.697,171.86 127.455,196.927 131.962,233.952 137.757,231.376 140.333,227.191 139.045,187.59 139.367,173.746 
					124.252,170.586 				"/>
				<path style="fill:#263238;stroke:#263238;stroke-linecap:round;stroke-linejoin:round;stroke-miterlimit:10;" d="
					M104.51,170.033c0,0,10.514,15.89,12.999,21.853c2.485,5.964,2.485,5.964,2.485,5.964s-0.765,21.91,0,27.831
					c0.765,5.921-0.681,10.559-0.681,10.559s-16.837,3.755-18.017-0.172c-1.181-3.927-8.81-8.034-8.81-8.034
					s-0.819-28.693-0.819-31.178c0-2.485-2.034-20.559-2.034-20.559L104.51,170.033z"/>
				<path style="fill:#263238;stroke:#263238;stroke-linecap:round;stroke-linejoin:round;stroke-miterlimit:10;" d="
					M130.825,140.805c0,0-4.728,2.626-9.105,3.502c-4.377,0.875-13.132-2.276-19.085-1.226c-5.953,1.05-9.105,8.229-8.404,12.782
					c0.7,4.552,16.809,6.479,22.587,5.428c5.778-1.051,13.657-8.229,15.933-12.782C135.027,143.957,136.603,138.704,130.825,140.805
					z"/>
				<path style="fill:#FFFFFF;stroke:#263238;stroke-linecap:round;stroke-linejoin:round;stroke-miterlimit:10;" d="
					M110.026,162.521c0,0-0.784,5.489-0.448,7.057c0.336,1.568,8.849,7.505,10.417,8.513c1.568,1.008,4.257-7.057,4.257-7.505
					c0-0.448-0.336-4.928-0.336-4.928s-4.705,1.68-7.393,0.224C113.835,164.426,110.026,162.521,110.026,162.521z"/>
				<g>
					<path style="fill:#FFFFFF;stroke:#263238;stroke-linecap:round;stroke-linejoin:round;stroke-miterlimit:10;" d="
						M126.268,148.072c0,0-2.912-2.576-8.401-1.904c-5.489,0.672-8.065,1.792-9.073,3.024c-1.008,1.232-2.016,3.584-2.016,3.584
						s-2.464-0.672-2.016,2.912c0.448,3.584,1.344,4.257,1.904,4.48c0.56,0.224,1.792,0.336,1.792,0.336s1.344,3.472,3.024,4.48
						s4.704,4.368,9.073,3.696c4.368-0.672,6.049-4.816,6.609-7.617C127.724,158.265,126.268,148.072,126.268,148.072z"/>
					<path style="fill:#FFFFFF;stroke:#263238;stroke-linecap:round;stroke-linejoin:round;stroke-miterlimit:10;" d="
						M106.778,152.776c0,0,1.456,2.016,1.792,1.456c0.336-0.56,0.224-5.041,0.224-5.041L106.778,152.776z"/>
					<path style="fill:none;stroke:#263238;stroke-linecap:round;stroke-linejoin:round;stroke-miterlimit:10;" d="M112.603,151.992
						c0,0,1.68-2.352,4.592-1.568"/>
					<path style="fill:none;stroke:#263238;stroke-linecap:round;stroke-linejoin:round;stroke-miterlimit:10;" d="M121.9,150.424
						c0,0,2.576-1.68,4.033,0.224"/>
					<path style="fill:none;stroke:#263238;stroke-linecap:round;stroke-linejoin:round;stroke-miterlimit:10;" d="M122.012,156.025
						c0,0-0.672,1.232-2.24,1.232"/>
					<path style="fill:none;stroke:#263238;stroke-linecap:round;stroke-linejoin:round;stroke-miterlimit:10;" d="M116.299,159.049
						c0,0,4.257,2.016,7.617-0.448"/>
					<ellipse style="fill:#263238;" cx="116.144" cy="152.591" rx="0.72" ry="1.048"/>
					<ellipse style="fill:#263238;" cx="123.935" cy="152.46" rx="0.72" ry="1.048"/>
				</g>
				<path style="fill:#92E3A9;stroke:#263238;stroke-linecap:round;stroke-linejoin:round;stroke-miterlimit:10;" d="
					M109.469,165.595c0,0,6.525,7.57,9.919,7.831c3.393,0.261,4.864-2.84,4.864-2.84s1.922,0.49,2.444,1.273
					c0.522,0.783,2.349,4.437,0.261,9.136c-2.088,4.698-2.61,12.268-2.61,12.268s-5.742-10.963-9.136-13.573
					c-3.393-2.61-10.18-7.831-10.702-9.658C103.988,168.206,108.838,163.962,109.469,165.595z"/>
				<g>
					<g>
						<path style="fill:none;stroke:#263238;stroke-linecap:round;stroke-linejoin:round;stroke-miterlimit:10;" d="
							M137.137,173.165c0,0,3.164,2.161,4.426,5.475c1.262,3.314,5.523,31.246,5.523,31.246l2.209,1.736v1.42
							c0,0-3.63,0.947-5.05,3.787c-1.42,2.841,1.42,8.048-0.158,8.364c-1.578,0.316-5.562-0.779-5.385-1.652
							c0.177-0.873-1.874-4.029-1.717-6.87c0.158-2.841,1.105-27.617,0.316-31.562C136.514,181.164,136.025,172.582,137.137,173.165
							z"/>
						<path style="fill:#FFFFFF;stroke:#263238;stroke-linecap:round;stroke-linejoin:round;stroke-miterlimit:10;" d="
							M149.296,211.622c0,0-3.945,0.316-5.05,2.367c-1.105,2.051-1.894,6.312-1.578,8.206c0.316,1.894,0.789,3.63,2.367,4.103
							c1.578,0.473,6.154-0.631,6.154-0.631s5.208-4.577,3.945-8.364C153.872,213.515,150.085,211.306,149.296,211.622z"/>
						<path style="fill:none;stroke:#263238;stroke-linecap:round;stroke-linejoin:round;stroke-miterlimit:10;" d="
							M147.087,209.886c0,0-3.63,0.789-5.366,4.103"/>
						<path style="fill:none;stroke:#263238;stroke-linecap:round;stroke-linejoin:round;stroke-miterlimit:10;" d="
							M139.827,211.779c0,0,2.998-2.525,4.892-3.472"/>
					</g>
					<g>
						<path style="fill:#FFFFFF;stroke:#263238;stroke-linecap:round;stroke-linejoin:round;stroke-miterlimit:10;" d="
							M152.294,214.778c0,0-3.156-0.158-4.892,3.314s-1.262,6.155,0.158,6.944c1.42,0.789,4.261,2.051,4.261,2.051
							s-0.947,1.42-0.316,2.367c0.631,0.947,3.472,3.945,4.419,4.261c0.947,0.316,3.63,0,5.681-2.051
							c2.051-2.052,1.736-5.05,0.789-6.628c-0.947-1.578-2.998-3.314-3.787-3.63c-0.789-0.316-1.578-1.42-1.578-1.42
							S154.188,215.409,152.294,214.778z"/>
						<path style="fill:none;stroke:#263238;stroke-linecap:round;stroke-linejoin:round;stroke-miterlimit:10;" d="
							M155.924,221.721c0,0-2.367,0.631-3.472,1.42c-1.105,0.789-0.631,3.945-0.631,3.945l4.261-3.156"/>
						<path style="fill:none;stroke:#263238;stroke-linecap:round;stroke-linejoin:round;stroke-miterlimit:10;" d="
							M151.505,229.454c0,0,5.997-2.051,7.733-4.103"/>
						<path style="fill:none;stroke:#263238;stroke-linecap:round;stroke-linejoin:round;stroke-miterlimit:10;" d="
							M153.399,231.663c0,0,5.681-1.105,7.259-3.472"/>
						<path style="fill:none;stroke:#263238;stroke-linecap:round;stroke-linejoin:round;stroke-miterlimit:10;" d="
							M155.023,233.035c0,0,4.584-1.066,6.076-2.665"/>
					</g>
				</g>
				<path style="fill:#FFFFFF;stroke:#263238;stroke-linecap:round;stroke-linejoin:round;stroke-miterlimit:10;" d="
					M101.117,192.219C101.117,192.219,101.378,190.392,101.117,192.219c-0.261,1.827-7.57,17.488-7.57,17.488
					s2.349,2.349,2.349,3.654s-0.261,6.525-0.261,6.525s-3.132,2.61-4.959,5.22c-1.827,2.61-2.349,6.264-2.349,6.264
					s-9.136-7.048-8.875-10.18c0.261-3.132,3.654-40.458,8.091-43.851c4.437-3.393,8.614-0.261,8.614-0.261"/>
				<g>
					<path style="fill:#FFFFFF;stroke:#263238;stroke-linecap:round;stroke-linejoin:round;stroke-miterlimit:10;" d="
						M95.635,219.887c0,0-0.941-1.48-2.204-0.848c-1.263,0.631-7.575,6.786-8.206,8.364c-0.631,1.578,1.578,5.523,1.578,5.523
						s3.63,1.105,4.103,0.789c0.473-0.316,0.158-2.998,1.578-5.681c1.42-2.683,5.681-4.892,5.839-5.365
						C98.481,222.195,95.635,219.887,95.635,219.887z"/>
					<g>
						<path style="fill:#FFFFFF;stroke:#263238;stroke-linecap:round;stroke-linejoin:round;stroke-miterlimit:10;" d="
							M97.535,223.773l11.204,9.311c0,0,9.626,2.683,10.573,3.156c0.947,0.473,5.05,7.101,5.208,7.891
							c0.158,0.789-0.474,1.105-0.947,1.578c-0.473,0.473-4.261,1.894-4.261,1.894s-3.314-0.789-5.681-1.736
							c-2.367-0.947-6.944-2.998-8.679-4.734s-2.841-2.998-2.841-2.998l-10.889-5.523C91.222,232.61,89.96,224.404,97.535,223.773z"
							/>
						<path style="fill:#FFFFFF;stroke:#263238;stroke-linecap:round;stroke-linejoin:round;stroke-miterlimit:10;" d="
							M115.683,234.662l6.628,1.42l3.314,1.578c0,0,0.947,1.105-0.631,1.262c-1.578,0.158-3.945-0.789-3.945-0.789l-1.736-1.894
							L115.683,234.662z"/>
						<path style="fill:none;stroke:#263238;stroke-linecap:round;stroke-linejoin:round;stroke-miterlimit:10;" d="
							M112.211,243.341c0,0,7.575,3.156,8.522,3.63"/>
						
							<line style="fill:none;stroke:#263238;stroke-linecap:round;stroke-linejoin:round;stroke-miterlimit:10;" x1="115.209" y1="241.29" x2="123.573" y2="245.708"/>
						
							<line style="fill:none;stroke:#263238;stroke-linecap:round;stroke-linejoin:round;stroke-miterlimit:10;" x1="118.05" y1="238.607" x2="124.52" y2="244.13"/>
					</g>
				</g>
			</g>
			<path style="fill:#BABABA;stroke:#263238;stroke-linecap:round;stroke-linejoin:round;stroke-miterlimit:10;" d="
				M229.441,196.304c0,0-2.506-7.797-4.177-11.695c-1.671-3.899-4.455-7.24-4.455-7.24s-3.063,8.911-2.506,13.645
				c0.557,4.734,7.518,8.354,7.518,8.354"/>
			<g>
				<path style="fill:#FFFFFF;stroke:#263238;stroke-linecap:round;stroke-linejoin:round;stroke-miterlimit:10;" d="
					M282.071,245.87c0-3.342-6.683-11.417-11.695-15.594c-2.311-1.926-5.331-6.337-7.917-10.533
					c-2.384-1.604-4.396-2.414-5.21-1.379c-2.608,3.32,6.402,14.227,10.433,17.072c4.031,2.845,4.979,5.928,2.845,5.691
					c-2.134-0.237-9.01-0.237-13.24,2.794c-2.242,1.607-2.517,5.521-2.282,8.845c2.225,1.26,1.214,2.748,3.674,6.192
					c2.785,3.899,5.012,3.899,8.911,2.506c3.898-1.392,4.177-3.063,4.177-3.063s3.063,0,5.848-2.228
					C280.4,253.946,282.071,249.212,282.071,245.87z"/>
				<path style="fill:#263238;stroke:#263238;stroke-linecap:round;stroke-linejoin:round;stroke-miterlimit:10;" d="
					M273.717,247.819c0,0-3.898-6.405-5.569-3.342C266.477,247.541,273.995,250.047,273.717,247.819z"/>
				<path style="fill:none;stroke:#263238;stroke-linecap:round;stroke-linejoin:round;stroke-miterlimit:10;" d="M271.768,258.401
					c0,0-3.62,0-6.405-0.557c-2.785-0.557-3.62-6.126-5.012-7.797c-1.392-1.671-1.392-1.671-1.392-1.671"/>
				<path style="fill:none;stroke:#263238;stroke-linecap:round;stroke-linejoin:round;stroke-miterlimit:10;" d="M266.477,243.479
					c0,0-0.761,2.327,0.338,4.617c0.635,1.324,2.511,3.417,6.319,2.564"/>
			</g>
			<g>
				<g>
					<path style="fill:#B8B8B8;stroke:#263238;stroke-linecap:round;stroke-linejoin:round;stroke-miterlimit:10;" d="
						M125.772,324.575c0.631,0.367,1.288,0.635,1.967,0.8c7.832,1.902,16.646-10.557,19.648-27.772
						c1.952-11.195,1.041-22.253-2.379-28.857c-1.678-3.239-3.897-5.273-6.417-5.887c-7.831-1.902-16.645,10.556-19.647,27.771
						c-1.953,11.196-1.041,22.253,2.379,28.858C122.547,321.855,124.062,323.579,125.772,324.575z M139.844,265.619
						c1.424,0.829,2.699,2.291,3.745,4.313c3.177,6.135,3.997,16.559,2.14,27.205c-2.806,16.088-10.733,27.806-17.673,26.122
						c-2.058-0.502-3.897-2.214-5.317-4.955c-3.177-6.135-3.997-16.56-2.14-27.206l0,0c2.806-16.088,10.733-27.805,17.672-26.12
						C138.812,265.109,139.338,265.324,139.844,265.619z"/>
				</g>
				<g>
					<g>
						<path style="fill:#B8B8B8;stroke:#263238;stroke-linecap:round;stroke-linejoin:round;stroke-miterlimit:10;" d="
							M131.261,319.334c1.256,0.732,2.583,1.14,3.954,1.205c8.478,0.406,16.245-12.607,17.313-29.007
							c0.659-10.109-1.336-19.566-5.336-25.299c-2.308-3.309-5.133-5.135-8.172-5.28c-8.478-0.406-16.245,12.607-17.313,29.007
							c-0.659,10.108,1.336,19.565,5.336,25.299C128.31,317.074,129.733,318.444,131.261,319.334z M142.266,264.121
							c1.317,0.767,2.55,1.957,3.656,3.542c3.698,5.301,5.536,14.158,4.915,23.69c-0.995,15.268-7.974,27.394-15.558,27.031
							c-2.561-0.124-4.971-1.699-6.965-4.556c-3.699-5.302-5.536-14.157-4.915-23.689c0.994-15.268,7.974-27.394,15.558-27.031
							C140.098,263.162,141.209,263.505,142.266,264.121z"/>
					</g>
					<g>
						<path style="fill:#B8B8B8;stroke:#263238;stroke-linecap:round;stroke-linejoin:round;stroke-miterlimit:10;" d="
							M127.334,320.883c0.746,0.434,1.526,0.753,2.335,0.949c8.296,2.014,17.337-9.489,20.154-25.642
							c1.745-10.004,0.786-19.839-2.563-26.308c-1.906-3.679-4.467-6-7.411-6.716c-8.296-2.014-17.337,9.488-20.154,25.643l0,0
							c-1.745,10.004-0.786,19.839,2.563,26.307C123.64,317.783,125.367,319.737,127.334,320.883z M141.47,266.073
							c1.682,0.979,3.169,2.672,4.372,4.994c3.103,5.992,3.971,15.209,2.324,24.655c-2.621,15.027-10.776,25.789-18.179,23.992
							c-2.48-0.604-4.664-2.604-6.311-5.784c-3.102-5.992-3.971-15.209-2.324-24.656c2.621-15.027,10.775-25.789,18.178-23.991
							C140.2,265.446,140.849,265.711,141.47,266.073z M120.524,289.041l-0.007-0.004L120.524,289.041z"/>
					</g>
					<g>
						<path style="fill:#B8B8B8;stroke:#263238;stroke-linecap:round;stroke-linejoin:round;stroke-miterlimit:10;" d="
							M127.803,313.44c0.735,0.428,1.506,0.743,2.306,0.937c7.831,1.902,16.269-8.399,18.809-22.961
							c1.533-8.791,0.633-17.547-2.409-23.421c-1.843-3.561-4.342-5.812-7.226-6.513c-7.831-1.902-16.269,8.399-18.808,22.961
							c-1.534,8.792-0.633,17.548,2.409,23.421C124.215,310.437,125.89,312.326,127.803,313.44z M140.875,264.377
							c1.629,0.949,3.064,2.576,4.217,4.803c2.795,5.397,3.606,13.534,2.17,21.768c-2.343,13.436-9.895,22.995-16.834,21.311
							c-2.42-0.591-4.541-2.517-6.126-5.58c-2.795-5.397-3.606-13.536-2.17-21.77c2.343-13.435,9.894-22.994,16.833-21.309
							C139.625,263.761,140.264,264.021,140.875,264.377z"/>
					</g>
				</g>
				<g>
					<g>
						<path style="fill:#B8B8B8;stroke:#263238;stroke-linecap:round;stroke-linejoin:round;stroke-miterlimit:10;" d="
							M131.441,312.306c1.05,0.612,2.16,0.953,3.307,1.008c7.047,0.337,13.501-10.437,14.385-24.016
							c0.545-8.358-1.109-16.184-4.423-20.934c-1.925-2.759-4.284-4.281-6.823-4.404c-7.047-0.337-13.5,10.436-14.385,24.015
							c-0.545,8.359,1.108,16.185,4.423,20.935C128.98,310.424,130.167,311.564,131.441,312.306z M140.486,266.931
							c1.063,0.619,2.061,1.582,2.955,2.864c3.013,4.318,4.509,11.543,4.002,19.325c-0.811,12.447-6.477,22.334-12.63,22.04
							c-2.063-0.099-4.006-1.371-5.617-3.679c-3.013-4.318-4.509-11.543-4.002-19.326l0,0c0.811-12.447,6.476-22.333,12.63-22.038
							C138.741,266.159,139.635,266.435,140.486,266.931z"/>
					</g>
					<g>
						<path style="fill:#B8B8B8;stroke:#263238;stroke-linecap:round;stroke-linejoin:round;stroke-miterlimit:10;" d="
							M128.213,313.579c0.624,0.364,1.277,0.629,1.955,0.794c6.897,1.676,14.406-7.844,16.739-21.221
							c1.443-8.272,0.647-16.408-2.128-21.767c-1.59-3.067-3.729-5.004-6.189-5.603c-6.897-1.675-14.406,7.845-16.739,21.221
							c-1.443,8.272-0.647,16.409,2.127,21.768C125.131,310.993,126.571,312.623,128.213,313.579z M139.831,268.534
							c1.356,0.79,2.558,2.158,3.531,4.036c2.528,4.882,3.234,12.402,1.889,20.115c-2.137,12.25-8.76,21.029-14.764,19.57
							c-1.997-0.488-3.758-2.101-5.089-4.67c-2.527-4.882-3.234-12.401-1.888-20.116c2.136-12.25,8.759-21.028,14.764-19.57
							C138.811,268.03,139.332,268.243,139.831,268.534z"/>
					</g>
					<g>
						<path style="fill:#B8B8B8;stroke:#263238;stroke-linecap:round;stroke-linejoin:round;stroke-miterlimit:10;" d="
							M128.599,307.462c0.615,0.358,1.26,0.622,1.931,0.784c6.516,1.582,13.529-6.949,15.633-19.017
							c1.269-7.276,0.521-14.526-2.001-19.396c-1.538-2.97-3.626-4.851-6.036-5.435c-6.516-1.582-13.529,6.949-15.633,19.018
							c-1.269,7.275-0.521,14.525,2.001,19.395C125.604,304.956,127.001,306.531,128.599,307.462z M139.342,267.141
							c1.313,0.765,2.471,2.079,3.402,3.878c2.275,4.393,2.933,11.026,1.762,17.744c-1.908,10.942-8.035,18.731-13.658,17.366
							c-1.949-0.474-3.657-2.03-4.937-4.503c-2.275-4.392-2.934-11.025-1.762-17.743l0,0c1.908-10.942,8.035-18.732,13.658-17.366
							C138.338,266.646,138.851,266.855,139.342,267.141z"/>
					</g>
				</g>
			</g>
			<g>
				<path style="fill:#FFFFFF;stroke:#263238;stroke-linecap:round;stroke-linejoin:round;stroke-miterlimit:10;" d="
					M95.871,233.037c0,0-0.798,7.817-0.638,10.37c0.16,2.553,0.798,5.265,0.798,5.265h2.872c0,0-0.798-7.179-0.16-8.455
					c0.638-1.276,3.031-2.393,2.552-4.148C100.816,234.313,99.54,229.368,95.871,233.037z"/>
				<path style="fill:none;stroke:#263238;stroke-linecap:round;stroke-linejoin:round;stroke-miterlimit:10;" d="M95.871,233.037
					c0,0,0.141,6.709,3.191,5.903"/>
				<path style="fill:#7A7A7A;stroke:#263238;stroke-linecap:round;stroke-linejoin:round;stroke-miterlimit:10;" d="
					M98.902,248.671c0,0-0.319,9.732,2.074,13.879c2.393,4.148,2.712,8.136,1.117,9.253c-1.595,1.117-3.51-0.319-3.829-1.117
					c-0.319-0.798-3.829-9.412-4.148-15.156c-0.319-5.743,0.16-7.02,0.16-7.02L98.902,248.671z"/>
			</g>
			<path style="fill:none;stroke:#263238;stroke-width:2;stroke-linecap:round;stroke-linejoin:round;stroke-miterlimit:10;" d="
				M154.045,226.383c0,0,24.949,47.583,60.186,57.356c35.237,9.774,41.667-37.295,41.667-37.295"/>
			<g>
				<g>
					<path style="fill:#7A7A7A;stroke:#263238;stroke-linecap:round;stroke-linejoin:round;stroke-miterlimit:10;" d="
						M251.987,244.777c-0.075-0.511-3.054-14.841,4.485-19.239c7.667-4.473,9.546-1.023,9.863-0.626l0,0
						c0,0.001,0.925,2.197,0.925,2.197c0.485-1.183-3.929-3.758-10.064,1.681c-4.896,4.34-3.335,13.125-3.321,13.229
						L251.987,244.777z"/>
				</g>
				
					<circle style="fill:#FFFFFF;stroke:#263238;stroke-linecap:round;stroke-linejoin:round;stroke-miterlimit:10;" cx="255.418" cy="245.114" r="4.256"/>
			</g>
			<path style="fill:#FFFFFF;stroke:#263238;stroke-linecap:round;stroke-linejoin:round;stroke-miterlimit:10;" d="
				M227.492,190.178c0,0,5.848-3.063,13.645,1.671c7.797,4.734,16.151,12.531,17.822,16.708c1.671,4.177,6.683,12.809,8.075,14.48
				c1.392,1.671,3.063,3.62,3.063,3.62s-7.797-3.342-8.911-5.848c-1.114-2.506-2.506-5.012-2.506-5.012l1.392,7.797
				c0,0-4.455-3.898-8.354-8.075c-3.898-4.177-6.683-8.911-6.683-8.911l0.835,5.012c0,0-7.797-3.62-10.582-7.797
				c-2.785-4.177-6.405-9.189-6.962-10.582C227.77,191.848,227.492,190.178,227.492,190.178z"/>
		</g>
	</g>
</g>
</svg>
